# xmcd CD database file
#
# Track frame offsets:
#	150
#	12711
#	20614
#	26490
#	26982
#	57087
#	63255
#	65691
#	83391
#	84787
#	87641
#	88788
#	91490
#	108337
#	115097
#	121107
#	124777
#	130603
#	136511
#	148597
#	153464
#	156457
#	158696
#	165335
#	170598
#	171372
#	184074
#	184733
#	198469
#	198994
#	202625
#	206596
#	209057
#	222730
#	233801
#	255277
#	256811
#	261288
#	261957
#	264805
#	266274
#	270774
#	272501
#	278449
#	279726
#	282831
#	283380
#	295258
#	296227
#	302715
#	308487
#	311327
#	315943
#	321518
#	322470
#	324925
#
# Disc length: 4437 seconds
#
# Revision: 0
# Processed by: cddbd v1.5.2PL0 Copyright (c) Steve Scherf et al.
# Submitted via: CDex 1.51
#
DISCID=32115338
DTITLE=Woody Mann - Masterpieces of Country Blues Guitar - 2
DYEAR=2005
DGENRE=Blues
TTITLE0=Big Bill Broonzy performs Long Tall Mama
TTITLE1=Woody performs Long Tall Mama
TTITLE2=Introduction to lesson
TTITLE3=Tuning
TTITLE4=Teaching of verse
TTITLE5=Verse played slowly
TTITLE6=Verse played faster
TTITLE7=Teaching of bars 13-21 of First Break
TTITLE8=Playing of bars 19-24 of First Break
TTITLE9=Teaching of bars 22-24 of First Break
TTITLE10=Playing of bars 21-24 of First Break
TTITLE11=Playing of First Break
TTITLE12=Teaching of bars 25-35 of Second Break
TTITLE13=Playing of bars 25-35 of Second Break
TTITLE14=Teaching of End Tag
TTITLE15=Playing of both Breaks slowly
TTITLE16=Teaching of alternate thumb and finger for single note runs
TTITLE17=Playing of complete arrangement
TTITLE18=Josh White performs Good Gal
TTITLE19=Woody performs Good Gal
TTITLE20=Introduction to tune
TTITLE21=Tuning to Open D Tuning
TTITLE22=Teaching of chord positions in Open D tuning
TTITLE23=Teaching of first two bars
TTITLE24=Playing of first two bars slowly
TTITLE25=Teaching of third to sixth bars
TTITLE26=Playing of fith and sixth bars
TTITLE27=Teaching of seventh to tenth bars
TTITLE28=Playing of ninth and tenth bars
TTITLE29=Teaching of eleventh and twelfth bars
TTITLE30=Playinf of Good Gal slowly
TTITLE31=Playing of Good Gal faster
TTITLE32=Scrapper Blackwell performs Kokomo Blues
TTITLE33=Woody performs Kokomo Blues
TTITLE34=Discussion of Scrapper Blackwell's techinques
TTITLE35=Playing of Introduction
TTITLE36=Teaching of first two bars
TTITLE37=Playing of first two bars
TTITLE38=Teaching of third and fourth bars
TTITLE39=Playing of third and fourth bars
TTITLE40=Teaching of fifth bar of Introduction
TTITLE41=Playing of Introduction
TTITLE42=Teaching first bar of Verse
TTITLE43=Playing of first two bars of Verse
TTITLE44=Teaching of third and fourth bars of Verse
TTITLE45=Playing of third and fourth bars of Verse
TTITLE46=Teaching of fifth to tenth bars of Verse
TTITLE47=Playing of ninth and tenth bars of Verse
TTITLE48=Teaching of eleventh and twelfth bars of Verse
TTITLE49=Playing of Verse slowly
TTITLE50=Playing of Verse with Snapping Technique and Dampening
TTITLE51=Teaching of Bending Technique
TTITLE52=Teaching of Alternate senventh and eigth bars of VErse
TTITLE53=Plays Alternate seventh and eigth bars of Verse
TTITLE54=Playing of Verse with Alternate seventh and eighth bars
TTITLE55=Closing thoughts
EXTD=YEAR: 2005
EXTT0=
EXTT1=
EXTT2=
EXTT3=
EXTT4=
EXTT5=
EXTT6=
EXTT7=
EXTT8=
EXTT9=
EXTT10=
EXTT11=
EXTT12=
EXTT13=
EXTT14=
EXTT15=
EXTT16=
EXTT17=
EXTT18=
EXTT19=
EXTT20=
EXTT21=
EXTT22=
EXTT23=
EXTT24=
EXTT25=
EXTT26=
EXTT27=
EXTT28=
EXTT29=
EXTT30=
EXTT31=
EXTT32=
EXTT33=
EXTT34=
EXTT35=
EXTT36=
EXTT37=
EXTT38=
EXTT39=
EXTT40=
EXTT41=
EXTT42=
EXTT43=
EXTT44=
EXTT45=
EXTT46=
EXTT47=
EXTT48=
EXTT49=
EXTT50=
EXTT51=
EXTT52=
EXTT53=
EXTT54=
EXTT55=
PLAYORDER=
